<svg xmlns="http://www.w3.org/2000/svg" viewBox="0 0 29.24 29.24"><defs><style>.cls-1{fill:#bfbfbf;}</style></defs><g id="Layer_2" data-name="Layer 2"><g id="ELEMENTS"><rect width="29.24" height="29.24" rx="7.65" transform="translate(29.24 0) rotate(90)"/><path class="cls-1" d="M15.44,17.25a2.46,2.46,0,0,1-.27,1.17,2.41,2.41,0,0,1-.74.85,3.61,3.61,0,0,1-1.08.52A5.05,5.05,0,0,1,12,20H7V9.43h5.64a2.07,2.07,0,0,1,1,.24,2.38,2.38,0,0,1,.76.61,2.89,2.89,0,0,1,.48.86,3,3,0,0,1,.17,1,2.84,2.84,0,0,1-.39,1.45,2.33,2.33,0,0,1-1.12,1,2.73,2.73,0,0,1,1.43,1A2.78,2.78,0,0,1,15.44,17.25ZM9,11.18v2.66h2.74a1.21,1.21,0,0,0,.88-.36,1.31,1.31,0,0,0,.36-1,1.37,1.37,0,0,0-.33-1,1.11,1.11,0,0,0-.83-.35Zm4.38,5.68a1.61,1.61,0,0,0-.09-.54,1.66,1.66,0,0,0-.26-.45,1.3,1.3,0,0,0-.39-.31,1.14,1.14,0,0,0-.49-.11H9v2.78h3a1.27,1.27,0,0,0,.52-.11,1.17,1.17,0,0,0,.43-.29,1.36,1.36,0,0,0,.38-1Z"/><path class="cls-1" d="M19.87,20a4.13,4.13,0,0,1-1.64-.31,3.69,3.69,0,0,1-2.05-2.07,4.14,4.14,0,0,1-.28-1.48,4,4,0,0,1,.28-1.52,3.68,3.68,0,0,1,2-2.11,4.25,4.25,0,0,1,1.67-.31,4.07,4.07,0,0,1,1.64.31,3.9,3.9,0,0,1,2.27,3.91,1.17,1.17,0,0,1,0,.29H17.94a2.35,2.35,0,0,0,.22.79,1.89,1.89,0,0,0,.45.59,2,2,0,0,0,.61.38A2.25,2.25,0,0,0,21,18.27a1.47,1.47,0,0,0,.7-.74l1.65.46a3.35,3.35,0,0,1-1.33,1.42A4.13,4.13,0,0,1,19.87,20Zm2-4.54a2,2,0,0,0-.63-1.36,1.92,1.92,0,0,0-1.34-.51,2,2,0,0,0-.73.14,2.1,2.1,0,0,0-.6.38,2,2,0,0,0-.42.59,1.89,1.89,0,0,0-.19.76Z"/><path class="cls-1" d="M17.34,9.93h5v1.25h-5Z"/></g></g></svg>