<svg xmlns="http://www.w3.org/2000/svg" viewBox="0 0 2081.66 1422"><defs><style>.cls-1{fill:#b7a049;}</style></defs><g id="Layer_2" data-name="Layer 2"><g id="Layer_1-2" data-name="Layer 1"><path class="cls-1" d="M2012,260.21A521.23,521.23,0,0,0,1431.25,16.37,517.35,517.35,0,0,0,1301,69.64a520.19,520.19,0,0,0-97.47,828.76,781.68,781.68,0,0,1-101.37,142.43,759.36,759.36,0,0,1-61.37,61.37,757.62,757.62,0,0,1-61.36-61.37A782.21,782.21,0,0,1,878.09,898.4a518.46,518.46,0,1,0-227.68,126.06q4.56,8.24,9.25,16.37a1042.76,1042.76,0,0,0,121,168.05c10.59,12,21.51,23.82,32.64,35.35q28.68,29.54,59.52,56.81a1043.65,1043.65,0,0,0,168,121,1042.76,1042.76,0,0,0,168.05-121q30.86-27.21,59.53-56.81,16.69-17.3,32.63-35.35a1042.76,1042.76,0,0,0,121-168.05q4.71-8.13,9.25-16.37A520.59,520.59,0,0,0,2012,260.21ZM552.72,778.64a264.64,264.64,0,0,1-32.3,2c-143.7,0-260.21-116.51-260.21-260.2S376.72,260.21,520.42,260.21a262.65,262.65,0,0,1,32.3,2c128.45,15.9,227.9,125.47,227.9,258.22S681.17,762.73,552.72,778.64Zm1008.53,2a264.93,264.93,0,0,1-32.31-2C1400.5,762.73,1301,653.16,1301,520.42s99.46-242.32,227.9-258.22a262.94,262.94,0,0,1,32.31-2c143.69,0,260.21,116.51,260.21,260.21S1704.94,780.62,1561.25,780.62Z"/></g></g></svg>