<svg xmlns="http://www.w3.org/2000/svg" viewBox="0 0 2178 1487.81"><defs><style>.cls-1{fill:#a3a599;}</style></defs><g id="Layer_2" data-name="Layer 2"><g id="Layer_1-2" data-name="Layer 1"><path class="cls-1" d="M2105.14,272.25A544.58,544.58,0,1,0,1259.27,940a818.63,818.63,0,0,1-106.06,149,793.94,793.94,0,0,1-64.21,64.21,793.94,793.94,0,0,1-64.21-64.21A818.63,818.63,0,0,1,918.73,940a542.51,542.51,0,1,0-238.22,131.89c3.18,5.75,6.39,11.46,9.68,17.13a1091.49,1091.49,0,0,0,126.56,175.83c11.08,12.59,22.5,24.92,34.14,37q30,30.92,62.28,59.44A1091.49,1091.49,0,0,0,1089,1487.81a1091.49,1091.49,0,0,0,175.83-126.56q32.26-28.47,62.28-59.44c11.64-12.06,23.06-24.39,34.14-37A1091.49,1091.49,0,0,0,1487.81,1089c3.29-5.67,6.5-11.38,9.68-17.13a544.68,544.68,0,0,0,607.65-799.62ZM578.3,814.67a277,277,0,0,1-33.8,2.08c-150.34,0-272.25-121.91-272.25-272.25S394.16,272.25,544.5,272.25a277,277,0,0,1,33.8,2.08C712.69,291,816.75,405.61,816.75,544.5S712.69,798,578.3,814.67Zm1055.2,2.08a277,277,0,0,1-33.8-2.08C1465.31,798,1361.25,683.39,1361.25,544.5S1465.31,291,1599.7,274.33a277,277,0,0,1,33.8-2.08c150.34,0,272.25,121.91,272.25,272.25S1783.84,816.75,1633.5,816.75Z"/></g></g></svg>