<svg xmlns="http://www.w3.org/2000/svg" viewBox="0 0 29.24 29.24"><defs><style>.cls-1{fill:#bfbfbf;}</style></defs><g id="Layer_2" data-name="Layer 2"><g id="ELEMENTS"><rect width="29.24" height="29.24" rx="7.65" transform="translate(29.24 0) rotate(90)"/><path class="cls-1" d="M19.16,9.11a1,1,0,1,0,1,1A1,1,0,0,0,19.16,9.11Z"/><path class="cls-1" d="M14.69,10.4a4.22,4.22,0,1,0,4.22,4.22A4.22,4.22,0,0,0,14.69,10.4Zm0,6.93a2.71,2.71,0,1,1,2.71-2.71A2.71,2.71,0,0,1,14.69,17.33Z"/><path class="cls-1" d="M18,23.19H11.2A5.16,5.16,0,0,1,6.05,18V11.2A5.16,5.16,0,0,1,11.2,6.05H18a5.16,5.16,0,0,1,5.15,5.15V18A5.16,5.16,0,0,1,18,23.19ZM11.2,7.66A3.55,3.55,0,0,0,7.66,11.2V18a3.55,3.55,0,0,0,3.54,3.54H18A3.55,3.55,0,0,0,21.58,18V11.2A3.55,3.55,0,0,0,18,7.66Z"/></g></g></svg>