<svg xmlns="http://www.w3.org/2000/svg" viewBox="0 0 29.24 29.24"><defs><style>.cls-1{fill:#fff;}</style></defs><g id="Layer_2" data-name="Layer 2"><g id="ELEMENTS"><rect width="29.24" height="29.24" rx="7.65" transform="translate(29.24 0) rotate(90)"/><path class="cls-1" d="M8.49,11.9h2.83V21H8.49ZM9.91,7.38A1.64,1.64,0,1,1,8.26,9,1.64,1.64,0,0,1,9.91,7.38"/><path class="cls-1" d="M13.1,11.9h2.71v1.24h0a3,3,0,0,1,2.68-1.47c2.87,0,3.39,1.89,3.39,4.34v5H19.09V16.57c0-1.05,0-2.41-1.47-2.41s-1.7,1.15-1.7,2.34V21H13.1Z"/></g></g></svg>