<svg xmlns="http://www.w3.org/2000/svg" viewBox="0 0 1997.62 1364.59"><defs><style>.cls-1{fill:#a0a603;}</style></defs><g id="Layer_2" data-name="Layer 2"><g id="Layer_1-2" data-name="Layer 1"><path class="cls-1" d="M1930.79,249.7a500.18,500.18,0,0,0-557.32-234,496.34,496.34,0,0,0-125,51.12A499.19,499.19,0,0,0,1155,862.13a750.61,750.61,0,0,1-97.28,136.68,727.19,727.19,0,0,1-58.89,58.89,727.19,727.19,0,0,1-58.89-58.89,750.61,750.61,0,0,1-97.28-136.68,497.55,497.55,0,1,0-218.49,121c2.92,5.27,5.86,10.51,8.88,15.71a1001.24,1001.24,0,0,0,116.08,161.27q15.24,17.33,31.31,33.91,27.52,28.37,57.12,54.52a1000.63,1000.63,0,0,0,161.27,116.08,1000.63,1000.63,0,0,0,161.27-116.08q29.6-26.12,57.12-54.52,16-16.59,31.31-33.91a1000.63,1000.63,0,0,0,116.08-161.27c3-5.2,6-10.44,8.88-15.71a499.57,499.57,0,0,0,557.32-733.4ZM530.41,747.2a253.71,253.71,0,0,1-31,1.91c-137.9,0-249.71-111.81-249.71-249.7S361.51,249.7,499.41,249.7a253.71,253.71,0,0,1,31,1.91c123.26,15.26,218.7,120.41,218.7,247.8S653.67,731.94,530.41,747.2Zm967.81,1.91a253.75,253.75,0,0,1-31-1.91c-123.26-15.26-218.7-120.41-218.7-247.79s95.44-232.54,218.7-247.8a253.75,253.75,0,0,1,31-1.91c137.89,0,249.7,111.81,249.7,249.71S1636.11,749.11,1498.22,749.11Z"/></g></g></svg>