<svg xmlns="http://www.w3.org/2000/svg" viewBox="0 0 576 393.47"><defs><style>.cls-1{fill:#bc8f8f;}</style></defs><g id="Layer_2" data-name="Layer 2"><g id="Layer_1-2" data-name="Layer 1"><path class="cls-1" d="M556.73,72A144.22,144.22,0,0,0,396,4.53a143.13,143.13,0,0,0-36,14.74,143.94,143.94,0,0,0-27,229.32A216.36,216.36,0,0,1,305,288a209.27,209.27,0,0,1-17,17,209.27,209.27,0,0,1-17-17,216.36,216.36,0,0,1-28-39.41,143.47,143.47,0,1,0-63,34.88q1.26,2.28,2.56,4.53A288.61,288.61,0,0,0,216,334.5q4.4,5,9,9.78Q233,352.46,241.5,360A288.61,288.61,0,0,0,288,393.47,288.61,288.61,0,0,0,334.5,360Q343,352.47,351,344.28q4.62-4.78,9-9.78A288.61,288.61,0,0,0,393.47,288q1.3-2.25,2.56-4.53A144,144,0,0,0,556.73,72ZM152.94,215.45A73.24,73.24,0,0,1,144,216a72,72,0,0,1,0-144,73.24,73.24,0,0,1,8.94.55,72,72,0,0,1,0,142.9ZM432,216a73.24,73.24,0,0,1-8.94-.55,72,72,0,0,1,0-142.9A73.24,73.24,0,0,1,432,72a72,72,0,0,1,0,144Z"/></g></g></svg>