<svg xmlns="http://www.w3.org/2000/svg" viewBox="0 0 29.24 29.24"><defs><style>.cls-1{fill:#bfbfbf;}</style></defs><g id="Layer_2" data-name="Layer 2"><g id="ELEMENTS"><rect width="29.24" height="29.24" rx="7.65" transform="translate(29.24 0) rotate(90)"/><path class="cls-1" d="M20.26,20.47a.89.89,0,0,1-.77.43.79.79,0,0,1-.44-.12,13,13,0,0,0-6.87-1.52,17,17,0,0,0-3.55.47A.89.89,0,1,1,8.16,18a18.69,18.69,0,0,1,3.92-.53,17.22,17.22,0,0,1,3.78.28,12.63,12.63,0,0,1,4.08,1.48A.9.9,0,0,1,20.26,20.47Z"/><path class="cls-1" d="M21.9,17.05a1,1,0,0,1-1.43.37,15.42,15.42,0,0,0-8.13-1.8,19.18,19.18,0,0,0-4.21.56,1.05,1.05,0,0,1-.56-2,22.11,22.11,0,0,1,4.65-.63,20.43,20.43,0,0,1,4.48.33,15.28,15.28,0,0,1,4.83,1.76A1,1,0,0,1,21.9,17.05Z"/><path class="cls-1" d="M22.92,13.94a1.28,1.28,0,0,1-.65-.18C15.71,9.93,7.21,12.21,7.13,12.23a1.29,1.29,0,0,1-.69-2.48A27,27,0,0,1,12.15,9a25.09,25.09,0,0,1,5.49.4,18.47,18.47,0,0,1,5.93,2.16,1.29,1.29,0,0,1-.65,2.4Z"/></g></g></svg>