<svg xmlns="http://www.w3.org/2000/svg" viewBox="0 0 2858.99 1953"><defs><style>.cls-1{fill:#2a8c8c;}</style></defs><g id="Layer_2" data-name="Layer 2"><g id="Layer_1-2" data-name="Layer 1"><path class="cls-1" d="M2763.35,357.37A715.89,715.89,0,0,0,1965.71,22.48a710.11,710.11,0,0,0-178.84,73.17A714.45,714.45,0,0,0,1653,1233.88a1073.71,1073.71,0,0,1-139.22,195.62,1040.74,1040.74,0,0,1-84.28,84.28,1037.53,1037.53,0,0,1-84.28-84.28A1073.76,1073.76,0,0,1,1206,1233.88,712.15,712.15,0,1,0,893.29,1407c4.17,7.55,8.38,15,12.7,22.49a1432.73,1432.73,0,0,0,166.13,230.8q21.83,24.79,44.82,48.54,39.39,40.59,81.75,78A1432.37,1432.37,0,0,0,1429.5,1953a1432.73,1432.73,0,0,0,230.8-166.13q42.36-37.38,81.75-78,22.93-23.74,44.82-48.54A1432.73,1432.73,0,0,0,1953,1429.5q6.48-11.18,12.71-22.49A715,715,0,0,0,2763.35,357.37Zm-2004.23,712a362.79,362.79,0,0,1-44.37,2.73c-197.35,0-357.38-160-357.38-357.37s160-357.38,357.38-357.38a364.79,364.79,0,0,1,44.37,2.73c176.41,21.84,313,172.34,313,354.65S935.53,1047.55,759.12,1069.39Zm1385.12,2.73a362.91,362.91,0,0,1-44.37-2.73c-176.4-21.84-313-172.33-313-354.64s136.6-332.81,313-354.65a364.91,364.91,0,0,1,44.37-2.73c197.35,0,357.38,160,357.38,357.38S2341.59,1072.12,2144.24,1072.12Z"/></g></g></svg>