<?xml version="1.0" standalone="no"?>
<!DOCTYPE svg PUBLIC "-//W3C//DTD SVG 20010904//EN"
 "http://www.w3.org/TR/2001/REC-SVG-20010904/DTD/svg10.dtd">
<svg version="1.0" xmlns="http://www.w3.org/2000/svg"
 width="576.000000pt" height="576.000000pt" viewBox="0 0 576.000000 576.000000"
 preserveAspectRatio="xMidYMid meet">
<metadata>
Created by potrace 1.14, written by Peter Selinger 2001-2017
</metadata>
<g transform="translate(0.000000,576.000000) scale(0.100000,-0.100000)"
fill="#000000" stroke="none">
<path d="M1289 4845 c-2 -2 -26 -6 -54 -9 -27 -3 -88 -15 -135 -26 -393 -96
-728 -351 -921 -701 -40 -73 -104 -225 -121 -288 -40 -142 -55 -259 -55 -411
0 -244 41 -423 151 -650 154 -317 461 -588 801 -706 195 -68 264 -79 485 -79
140 0 204 5 280 20 87 17 84 18 98 -13 22 -52 166 -264 252 -372 111 -140 339
-365 480 -473 63 -48 120 -91 125 -95 40 -31 194 -122 206 -122 30 0 296 183
420 290 68 57 261 248 320 315 90 103 308 409 309 433 0 4 8 17 18 29 l17 23
105 -20 c84 -15 139 -18 280 -15 96 2 182 6 190 8 8 2 33 7 55 11 495 95 925
468 1085 942 57 167 73 264 76 454 2 138 -2 195 -16 270 -31 158 -66 263 -129
390 -143 285 -366 509 -648 649 -106 53 -294 117 -369 126 -25 3 -67 10 -93
15 -129 24 -416 3 -576 -44 -453 -131 -809 -466 -964 -909 -17 -48 -33 -98
-36 -110 -17 -74 -35 -171 -37 -202 -2 -39 -16 -59 -15 -22 3 143 -108 468
-214 625 -16 23 -29 45 -29 48 0 9 -88 115 -144 174 -121 128 -247 222 -403
299 -106 53 -294 117 -369 126 -25 3 -67 10 -93 15 -44 8 -325 13 -332 5z
m281 -728 c8 -2 31 -7 50 -11 139 -32 305 -144 395 -266 152 -207 185 -487 84
-716 -74 -167 -216 -307 -385 -377 -116 -49 -293 -68 -409 -43 -168 35 -311
122 -419 253 -113 136 -166 294 -161 476 3 94 4 99 25 177 68 255 308 467 576
509 47 7 213 6 244 -2z m2885 -1 c270 -53 492 -262 560 -526 20 -75 27 -226
14 -296 -80 -442 -527 -708 -944 -562 -245 85 -426 299 -473 556 -13 75 -8
226 12 298 62 236 226 414 461 503 91 34 267 47 370 27z m-1564 -883 c4 -133
96 -404 192 -565 42 -70 138 -196 192 -250 l54 -54 -42 -70 c-85 -141 -198
-285 -325 -412 l-83 -83 -99 101 c-55 56 -127 138 -160 183 -34 45 -67 89 -74
98 -7 8 -36 53 -64 99 l-51 83 41 41 c141 143 270 353 332 541 30 92 65 247
66 288 0 15 5 27 10 27 6 0 10 -12 11 -27z"/>
</g>
</svg>
